<?xml version="1.0" encoding="utf-8"?>
<!-- Generator: Adobe Illustrator 19.0.0, SVG Export Plug-In . SVG Version: 6.00 Build 0)  -->
<svg version="1.1"
	 id="svg1" xmlns:inkscape="http://www.inkscape.org/namespaces/inkscape" xmlns:svg="http://www.w3.org/2000/svg" xmlns:sodipodi="http://sodipodi.sourceforge.net/DTD/sodipodi-0.dtd"
	 xmlns="http://www.w3.org/2000/svg" xmlns:xlink="http://www.w3.org/1999/xlink" x="0px" y="0px" width="200px" height="144.9px"
	 viewBox="-494.9 -91.4 200 144.9" style="enable-background:new -494.9 -91.4 200 144.9;" xml:space="preserve">
<g>
	
		<sodipodi:namedview  id="namedview1" inkscape:cx="395.8591" inkscape:cy="561.25984" borderopacity="0.25" bordercolor="#000000" pagecolor="#00000" inkscape:zoom="0.45344416" inkscape:window-maximized="1" inkscape:window-x="-8" inkscape:document-units="mm" inkscape:deskcolor="#d1d1d1" inkscape:pagecheckerboard="0" inkscape:pageopacity="0.0" inkscape:showpageshadow="2" inkscape:window-height="705" inkscape:current-layer="layer1" inkscape:window-width="1360" inkscape:window-y="-8">
		</sodipodi:namedview>
	<g id="g1">
		<path id="path1" d="M-390.3,25.1V-86.7c0-2.6-2.1-4.7-4.7-4.7c-2.6,0-4.7,2.1-4.7,4.7V25.1c-5.8,2-10,7.4-10,13.9
			c0,8.1,6.5,14.6,14.6,14.6s14.6-6.5,14.6-14.6C-380.3,32.5-384.5,27.1-390.3,25.1L-390.3,25.1z"/>
	</g>
	<g id="g2">
		<path id="path2" d="M-341.2-10.1c1.2,0,2.4-0.5,3.3-1.4l13.6-13.6c1.8-1.8,1.8-4.8,0-6.6c-1.8-1.8-4.8-1.8-6.6,0l-13.6,13.6
			c-1.8,1.8-1.8,4.8,0,6.6C-343.6-10.6-342.4-10.1-341.2-10.1z"/>
	</g>
	<path id="path3" d="M-382.1,18.5c2.9,1.8,5.3,4.2,7.2,7c2.6,3.9,4.1,8.5,4.1,13.5c0,1.3,0.5,2.5,1.4,3.3c0.8,0.8,2,1.4,3.3,1.4
		c0,0,0,0,0,0s0,0,0,0h48.2h18.3c1.3,0,2.5-0.5,3.3-1.4c0.8-0.8,1.4-2,1.4-3.3s-0.5-2.5-1.4-3.3c-0.8-0.8-2-1.4-3.3-1.4h-16.1
		l-37.5,0c-1.6-0.1-3.1-1.2-3.5-2.9c-0.3-1.7,0.6-3.4,2.2-4.1l49.4-20.5c1.2-0.5,2.1-1.4,2.5-2.5c0.5-1.1,0.5-2.4,0-3.6
		c-0.5-1.2-1.4-2.1-2.5-2.5c-1.1-0.5-2.4-0.5-3.6,0l-49.5,20.5c-1.5,0.6-3.3,0-4.3-1.4c-1-1.5-0.8-3.4,0.4-4.6L-350.4,1
		c0.9-0.9,1.4-2.1,1.4-3.3c0-1.2-0.5-2.4-1.4-3.3c-0.9-0.9-2.1-1.4-3.3-1.4c-1.2,0-2.4,0.5-3.3,1.4l-11.8,11.8
		c-1.2,1.1-3.1,1.3-4.5,0.4c-1.5-1-2-2.8-1.4-4.4l20.5-49.4c0.5-1.2,0.5-2.5,0-3.6c-0.5-1.1-1.3-2-2.5-2.5c-1.2-0.5-2.5-0.5-3.6,0
		c-1.1,0.5-2,1.3-2.5,2.5l-22.2,53.5c-0.3,0.6-0.4,1.4-0.4,2.2v7.5C-385.4,14.9-384.1,17.1-382.1,18.5"/>
	<g id="g2_1_">
		<path id="path2_1_" d="M-445.4-11.5c1.8-1.8,1.8-4.8,0-6.6L-459-31.7c-1.8-1.8-4.8-1.8-6.6,0c-1.8,1.8-1.8,4.8,0,6.6l13.6,13.6
			c0.9,0.9,2.1,1.4,3.3,1.4C-447.5-10.1-446.3-10.6-445.4-11.5z"/>
	</g>
	<path id="path3_1_" d="M-407.7,18.5c2-1.3,3.2-3.6,3.2-6.1V4.8c0-0.8-0.1-1.5-0.4-2.2l-22.2-53.5c-0.5-1.2-1.4-2.1-2.5-2.5
		c-1.1-0.5-2.4-0.5-3.6,0c-1.2,0.5-2.1,1.4-2.5,2.5c-0.5,1.1-0.5,2.4,0,3.6l20.5,49.4c0.6,1.6,0.1,3.4-1.4,4.4
		c-1.4,1-3.3,0.8-4.5-0.4l-11.8-11.8c-0.9-0.9-2.1-1.4-3.3-1.4c-1.2,0-2.4,0.5-3.3,1.4c-0.9,0.9-1.4,2.1-1.4,3.3
		c0,1.2,0.5,2.4,1.4,3.3l11.7,11.6c1.2,1.2,1.4,3.1,0.4,4.6c-1,1.4-2.8,2-4.3,1.4l-49.5-20.5c-1.2-0.5-2.5-0.5-3.6,0
		c-1.1,0.5-2,1.3-2.5,2.5c-0.5,1.2-0.5,2.5,0,3.6c0.5,1.1,1.3,2,2.5,2.5l49.4,20.5c1.6,0.7,2.5,2.3,2.2,4.1
		c-0.3,1.7-1.8,2.9-3.5,2.9l-37.5,0h-16.1c-1.3,0-2.5,0.5-3.3,1.4c-0.8,0.8-1.4,2-1.4,3.3s0.5,2.5,1.4,3.3c0.8,0.8,2,1.4,3.3,1.4
		h18.3h48.2c0,0,0,0,0,0s0,0,0,0c1.3,0,2.5-0.5,3.3-1.4c0.8-0.8,1.4-2,1.4-3.3c0-5,1.5-9.6,4.1-13.5
		C-413.1,22.7-410.6,20.3-407.7,18.5"/>
</g>
</svg>
