<?xml version="1.0" encoding="utf-8"?>
<!-- Generator: Adobe Illustrator 19.0.0, SVG Export Plug-In . SVG Version: 6.00 Build 0)  -->
<svg version="1.1" xmlns="http://www.w3.org/2000/svg" xmlns:xlink="http://www.w3.org/1999/xlink" x="0px" y="0px" width="400px"
	 height="400px" viewBox="-245.1 197.1 400 400" style="enable-background:new -245.1 197.1 400 400;" xml:space="preserve">
<style type="text/css">
	.st0{fill:#FFFFFF;}
</style>
<g id="svg1" xmlns:sodipodi="http://sodipodi.sourceforge.net/DTD/sodipodi-0.dtd" xmlns:inkscape="http://www.inkscape.org/namespaces/inkscape" xmlns:svg="http://www.w3.org/2000/svg">
	<circle cx="-45.1" cy="397.1" r="191.1"/>
	
		<sodipodi:namedview  inkscape:zoom="0.45344416" inkscape:cx="395.8591" bordercolor="#000000" pagecolor="#00000" id="namedview1" inkscape:cy="561.25984" borderopacity="0.25" inkscape:window-maximized="1" inkscape:window-y="-8" inkscape:window-x="-8" inkscape:document-units="mm" inkscape:deskcolor="#d1d1d1" inkscape:pagecheckerboard="0" inkscape:pageopacity="0.0" inkscape:showpageshadow="2" inkscape:window-height="705" inkscape:window-width="1360" inkscape:current-layer="layer1">
		</sodipodi:namedview>
</g>
<g id="Layer_2">
	<g id="layer1" transform="translate(-27.406356,-86.080343)" inkscape:label="Capa 1" inkscape:groupmode="layer">
		<g id="g5" transform="matrix(0.26458333,0,0,0.26458333,27.406355,86.080344)">
			<g id="g1">
				<path id="path1" class="st0" d="M-149.4,1706.9v-716c0-11.6-9.4-21.1-21.1-21.1c-11.6,0-21.1,9.4-21.1,21.1v716
					c-26.1,8.8-44.9,33.4-44.9,62.5c0,36.5,29.6,66,66,66c36.5,0,66-29.6,66-66C-104.5,1740.3-123.3,1715.7-149.4,1706.9
					L-149.4,1706.9z"/>
			</g>
			<g id="g2">
				<path id="path2" class="st0" d="M167.6,1452.4c5.4,0,10.8-2.1,14.9-6.2l61.6-61.6c8.2-8.2,8.2-21.6,0-29.8
					c-8.2-8.2-21.6-8.2-29.8,0l-61.6,61.6c-8.2,8.2-8.2,21.6,0,29.8C156.8,1450.4,162.2,1452.4,167.6,1452.4z"/>
			</g>
			<path id="path3" class="st0" d="M-112.8,1676.9c13,8.1,24.1,18.9,32.6,31.5c11.8,17.4,18.6,38.4,18.6,60.9
				c0,5.8,2.4,11.1,6.2,14.9c3.8,3.8,9.1,6.2,14.9,6.2c0,0,0,0,0.1,0c0,0,0,0,0.1,0h217.5h217.5c5.8,0,11.1-2.4,14.9-6.2
				c3.8-3.8,6.2-9.1,6.2-14.9c0-5.8-2.4-11.1-6.2-14.9c-3.8-3.8-9.1-6.2-14.9-6.2H186.9l-169,0c-7.4-0.3-14.1-5.6-15.7-13.3
				c-1.6-7.8,2.7-15.5,9.8-18.4l155.8-64.5l192-79.5c5.4-2.2,9.3-6.4,11.4-11.4c2.1-5,2.2-10.8,0-16.1c-2.2-5.4-6.4-9.3-11.4-11.4
				c-5-2.1-10.8-2.2-16.1,0l-192,79.5l-156.4,64.6c-7,2.6-15.1,0.2-19.4-6.3c-4.4-6.6-3.4-15.3,2-20.8l58.9-58.7l62.4-62.4
				c4.1-4.1,6.2-9.5,6.2-14.9c0-5.4-2.1-10.8-6.2-14.9c-4.1-4.1-9.5-6.2-14.9-6.2c-5.4,0-10.8,2.1-14.9,6.2l-62.4,62.4l-59.2,59.2
				c-5.5,5.1-13.9,5.9-20.4,1.6c-6.6-4.4-9-12.8-6.1-19.9l64.5-155.8l79.5-192c2.2-5.4,2.1-11.1,0-16.1c-2.1-5-6-9.2-11.4-11.4
				s-11.2-2.1-16.1,0c-5,2.1-9.2,6-11.4,11.4l-83.3,201l-68.5,165.3c-1.3,2.9-1.9,6.3-1.9,9.7v34
				C-127.3,1660.7-121.6,1670.9-112.8,1676.9"/>
			<g id="g4">
				<path id="path4" class="st0" d="M-493.6,1446.3c8.2-8.2,8.2-21.6,0-29.8l-61.6-61.6c-8.2-8.2-21.6-8.2-29.8,0
					c-8.2,8.2-8.2,21.6,0,29.8l61.6,61.6c4.1,4.1,9.5,6.2,14.9,6.2C-503.1,1452.4-497.7,1450.4-493.6,1446.3z"/>
			</g>
			<path id="path5" class="st0" d="M-228.2,1676.9c-13,8.1-24.1,18.9-32.6,31.5c-11.8,17.4-18.6,38.4-18.6,60.9
				c0,5.8-2.4,11.1-6.2,14.9c-3.8,3.8-9.1,6.2-14.9,6.2c0,0,0,0-0.1,0c0,0,0,0-0.1,0h-217.5h-217.5c-5.8,0-11.1-2.4-14.9-6.2
				c-3.8-3.8-6.2-9.1-6.2-14.9c0-5.8,2.4-11.1,6.2-14.9c3.8-3.8,9.1-6.2,14.9-6.2h207.8l169,0c7.4-0.3,14.1-5.6,15.7-13.3
				c1.6-7.8-2.7-15.5-9.8-18.4l-155.8-64.5l-192-79.5c-5.4-2.2-9.3-6.4-11.4-11.4c-2.1-5-2.2-10.8,0-16.1c2.2-5.4,6.4-9.3,11.4-11.4
				c5-2.1,10.8-2.2,16.1,0l192,79.5l156.4,64.6c7,2.6,15.1,0.2,19.4-6.3c4.4-6.6,3.4-15.3-2-20.8l-58.9-58.7l-62.4-62.4
				c-4.1-4.1-6.2-9.5-6.2-14.9c0-5.4,2.1-10.8,6.2-14.9c4.1-4.1,9.5-6.2,14.9-6.2c5.4,0,10.8,2.1,14.9,6.2l62.4,62.4l59.2,59.2
				c5.5,5.1,13.9,5.9,20.4,1.6c6.6-4.4,9-12.8,6.1-19.9l-64.5-155.8l-79.5-192c-2.2-5.4-2.1-11.1,0-16.1c2.1-5,6-9.2,11.4-11.4
				c5.4-2.2,11.2-2.1,16.1,0c5,2.1,9.2,6,11.4,11.4l83.3,201l68.5,165.3c1.3,2.9,1.9,6.3,1.9,9.7v34
				C-213.7,1660.7-219.4,1670.9-228.2,1676.9"/>
		</g>
	</g>
</g>
</svg>
