<?xml version="1.0" encoding="UTF-8" standalone="no"?>
<svg
   fill= "#f0f0f0"
   width="91.64505mm"
   height="67.656609mm"
   viewBox="0 0 91.64505 67.656609"
   version="1.1"
   id="svg1"
   xml:space="preserve"
   xmlns:inkscape="http://www.inkscape.org/namespaces/inkscape"
   xmlns:sodipodi="http://sodipodi.sourceforge.net/DTD/sodipodi-0.dtd"
   xmlns="http://www.w3.org/2000/svg"
   xmlns:svg="http://www.w3.org/2000/svg"><sodipodi:namedview
     id="namedview1"
     pagecolor="#ffffff"
     bordercolor="#000000"
     borderopacity="0.25"
     inkscape:showpageshadow="2"
     inkscape:pageopacity="0.0"
     inkscape:pagecheckerboard="0"
     inkscape:deskcolor="#d1d1d1"
     inkscape:document-units="mm"
     inkscape:zoom="0.45344416"
     inkscape:cx="395.8591"
     inkscape:cy="561.25984"
     inkscape:window-width="1360"
     inkscape:window-height="705"
     inkscape:window-x="-8"
     inkscape:window-y="-8"
     inkscape:window-maximized="1"
     inkscape:current-layer="layer1" /><defs
     id="defs1" /><g
     inkscape:label="Capa 1"
     inkscape:groupmode="layer"
     id="layer1"
     transform="translate(-27.406356,-86.080343)"><g
       id="g5"
       transform="matrix(0.26458333,0,0,0.26458333,27.406355,86.080344)">
	<g
   id="g1">
		<path
   d="M 179.413,217.74 V 6.228 C 179.413,2.79 176.625,0 173.185,0 c -3.438,0 -6.228,2.789 -6.228,6.228 v 211.514 c -7.712,2.6 -13.272,9.877 -13.272,18.468 0,10.77 8.732,19.5 19.501,19.5 10.769,0 19.502,-8.73 19.502,-19.5 0.001,-8.591 -5.561,-15.869 -13.275,-18.47 z"
   id="path1" />
	</g>
	<g
   id="g2">
		<path
   d="m 273.054,142.571 c 1.593,0 3.185,-0.607 4.399,-1.826 l 18.196,-18.195 c 2.433,-2.43 2.433,-6.376 0,-8.805 -2.433,-2.433 -6.375,-2.433 -8.808,0 l -18.193,18.196 c -2.433,2.429 -2.433,6.371 0,8.804 1.217,1.218 2.812,1.826 4.406,1.826 z"
   id="path2" />
	</g>
	<path
   d="m 190.237,208.89 c 3.831,2.395 7.117,5.581 9.644,9.319 3.474,5.138 5.502,11.331 5.498,18 0,1.717 0.697,3.273 1.824,4.403 1.127,1.126 2.684,1.824 4.403,1.824 0.007,0 0.013,0 0.018,-0.002 0.005,-0.002 0.011,-0.002 0.018,-0.002 h 64.255 64.253 c 1.718,0 3.275,-0.696 4.402,-1.824 1.126,-1.126 1.823,-2.683 1.823,-4.403 0,-1.72 -0.697,-3.277 -1.823,-4.403 -1.127,-1.126 -2.685,-1.824 -4.402,-1.824 h -61.386 l -49.938,0.005 c -2.196,-0.085 -4.176,-1.661 -4.624,-3.916 -0.459,-2.31 0.801,-4.565 2.892,-5.44 l 46.017,-19.065 56.715,-23.493 c 1.588,-0.657 2.759,-1.897 3.369,-3.369 0.611,-1.472 0.66,-3.179 0.003,-4.771 -0.66,-1.588 -1.9,-2.759 -3.372,-3.367 -1.474,-0.611 -3.179,-0.66 -4.767,-0.004 l -56.71,23.49 -46.205,19.081 c -2.063,0.765 -4.459,0.048 -5.738,-1.861 -1.311,-1.958 -1.013,-4.523 0.582,-6.134 l 17.411,-17.328 18.445,-18.445 c 1.215,-1.214 1.823,-2.81 1.823,-4.404 0,-1.592 -0.608,-3.188 -1.823,-4.403 -1.218,-1.215 -2.812,-1.821 -4.405,-1.821 -1.593,0 -3.187,0.606 -4.404,1.821 L 225.59,175 208.101,192.491 c -1.616,1.495 -4.103,1.748 -6.014,0.47 -1.959,-1.307 -2.664,-3.792 -1.804,-5.891 l 19.063,-46.023 23.489,-56.709 c 0.658,-1.588 0.61,-3.293 0,-4.765 -0.61,-1.473 -1.781,-2.713 -3.369,-3.371 -1.588,-0.658 -3.295,-0.611 -4.769,-0.001 -1.472,0.61 -2.712,1.783 -3.371,3.373 l -24.596,59.376 -20.223,48.835 c -0.377,0.861 -0.569,1.875 -0.569,2.876 v 10.034 c 0,3.399 1.696,6.402 4.299,8.195"
   id="path3" />
	<g
   id="g4">
		<path
   d="m 77.727,140.745 c 2.433,-2.433 2.433,-6.375 0,-8.804 L 59.534,113.745 c -2.433,-2.433 -6.375,-2.433 -8.808,0 -2.433,2.428 -2.433,6.375 0,8.805 l 18.197,18.195 c 1.215,1.219 2.806,1.826 4.4,1.826 1.592,0 3.187,-0.608 4.404,-1.826 z"
   id="path4" />
	</g>
	<path
   d="m 156.138,208.89 c -3.832,2.395 -7.117,5.581 -9.644,9.319 -3.474,5.138 -5.501,11.331 -5.498,18 0,1.717 -0.697,3.273 -1.825,4.403 -1.126,1.126 -2.683,1.824 -4.403,1.824 -0.007,0 -0.012,0 -0.017,-0.002 -0.005,-0.002 -0.011,-0.002 -0.018,-0.002 H 70.479 6.226 c -1.719,0 -3.275,-0.696 -4.403,-1.824 C 0.697,239.483 0,237.926 0,236.206 c 0,-1.72 0.697,-3.277 1.823,-4.403 1.128,-1.126 2.685,-1.824 4.403,-1.824 h 61.386 l 49.938,0.005 c 2.196,-0.085 4.176,-1.661 4.624,-3.916 0.458,-2.31 -0.801,-4.565 -2.892,-5.44 L 73.266,201.563 16.551,178.07 c -1.588,-0.657 -2.759,-1.897 -3.369,-3.369 -0.611,-1.472 -0.66,-3.179 -0.003,-4.771 0.66,-1.588 1.901,-2.759 3.373,-3.367 1.474,-0.611 3.178,-0.66 4.767,-0.004 l 56.71,23.49 46.206,19.081 c 2.063,0.765 4.458,0.048 5.738,-1.861 1.31,-1.958 1.013,-4.523 -0.582,-6.134 L 111.979,183.807 93.532,165.36 c -1.215,-1.214 -1.823,-2.81 -1.823,-4.404 0,-1.592 0.608,-3.188 1.823,-4.403 1.218,-1.215 2.812,-1.821 4.405,-1.821 1.593,0 3.187,0.606 4.405,1.821 l 18.445,18.446 17.489,17.491 c 1.616,1.495 4.103,1.748 6.014,0.47 1.958,-1.307 2.664,-3.792 1.804,-5.891 L 127.03,141.046 103.541,84.337 c -0.659,-1.588 -0.61,-3.293 0,-4.765 0.61,-1.473 1.781,-2.713 3.369,-3.371 1.588,-0.658 3.295,-0.611 4.768,-10e-4 1.472,0.61 2.712,1.783 3.371,3.373 l 24.595,59.378 20.223,48.835 c 0.377,0.861 0.569,1.875 0.569,2.876 v 10.034 c 0.001,3.398 -1.696,6.401 -4.298,8.194"
   id="path5" />
</g></g></svg>
