<?xml version="1.0" encoding="utf-8"?>
<!-- Generator: Adobe Illustrator 19.0.0, SVG Export Plug-In . SVG Version: 6.00 Build 0)  -->
<svg version="1.1"
	 id="svg1" xmlns:sodipodi="http://sodipodi.sourceforge.net/DTD/sodipodi-0.dtd" xmlns:inkscape="http://www.inkscape.org/namespaces/inkscape" xmlns:svg="http://www.w3.org/2000/svg"
	 xmlns="http://www.w3.org/2000/svg" xmlns:xlink="http://www.w3.org/1999/xlink" x="0px" y="0px" width="130px" height="130px"
	 viewBox="-110.1 332.1 130 130" style="enable-background:new -110.1 332.1 130 130;" xml:space="preserve">
<style type="text/css">
	.st0{fill:#FFFFFF;}
	.st1{fill:#0C0C0C;}
</style>
<g>
	<circle class="st0" cx="-45.1" cy="397.1" r="64"/>
</g>
<sodipodi:namedview  inkscape:zoom="0.45344416" inkscape:cx="395.8591" bordercolor="#000000" pagecolor="#00000" id="namedview1" inkscape:cy="561.25984" borderopacity="0.25" inkscape:window-maximized="1" inkscape:window-y="-8" inkscape:window-x="-8" inkscape:document-units="mm" inkscape:deskcolor="#d1d1d1" inkscape:pagecheckerboard="0" inkscape:pageopacity="0.0" inkscape:showpageshadow="2" inkscape:window-height="705" inkscape:window-width="1360" inkscape:current-layer="layer1">
	</sodipodi:namedview>
<g id="layer1" transform="translate(-27.406356,-86.080343)" inkscape:label="Capa 1" inkscape:groupmode="layer">
	<g id="g5" transform="matrix(0.26458333,0,0,0.26458333,27.406355,86.080344)">
		<g id="g1">
			<path id="path1" class="st1" d="M-164.2,1562V1349c0-3.5-2.8-6.3-6.3-6.3c-3.5,0-6.3,2.8-6.3,6.3V1562
				c-7.8,2.6-13.4,9.9-13.4,18.6c0,10.8,8.8,19.6,19.6,19.6c10.8,0,19.6-8.8,19.6-19.6C-150.9,1571.9-156.5,1564.6-164.2,1562
				L-164.2,1562z"/>
		</g>
		<g id="g2">
			<path id="path2" class="st1" d="M-70,1486.3c1.6,0,3.2-0.6,4.4-1.8l18.3-18.3c2.4-2.4,2.4-6.4,0-8.9c-2.4-2.4-6.4-2.4-8.9,0
				l-18.3,18.3c-2.4,2.4-2.4,6.4,0,8.9C-73.2,1485.7-71.6,1486.3-70,1486.3z"/>
		</g>
		<path id="path3" class="st1" d="M-153.3,1553.1c3.9,2.4,7.2,5.6,9.7,9.4c3.5,5.2,5.5,11.4,5.5,18.1c0,1.7,0.7,3.3,1.8,4.4
			c1.1,1.1,2.7,1.8,4.4,1.8c0,0,0,0,0,0c0,0,0,0,0,0h64.7h64.7c1.7,0,3.3-0.7,4.4-1.8c1.1-1.1,1.8-2.7,1.8-4.4
			c0-1.7-0.7-3.3-1.8-4.4c-1.1-1.1-2.7-1.8-4.4-1.8h-61.8l-50.3,0c-2.2-0.1-4.2-1.7-4.7-3.9c-0.5-2.3,0.8-4.6,2.9-5.5l46.3-19.2
			l57.1-23.7c1.6-0.7,2.8-1.9,3.4-3.4c0.6-1.5,0.7-3.2,0-4.8c-0.7-1.6-1.9-2.8-3.4-3.4c-1.5-0.6-3.2-0.7-4.8,0l-57.1,23.6
			l-46.5,19.2c-2.1,0.8-4.5,0-5.8-1.9c-1.3-2-1-4.6,0.6-6.2l17.5-17.4l18.6-18.6c1.2-1.2,1.8-2.8,1.8-4.4c0-1.6-0.6-3.2-1.8-4.4
			c-1.2-1.2-2.8-1.8-4.4-1.8s-3.2,0.6-4.4,1.8l-18.6,18.6l-17.6,17.6c-1.6,1.5-4.1,1.8-6.1,0.5c-2-1.3-2.7-3.8-1.8-5.9l19.2-46.3
			l23.6-57.1c0.7-1.6,0.6-3.3,0-4.8c-0.6-1.5-1.8-2.7-3.4-3.4c-1.6-0.7-3.3-0.6-4.8,0c-1.5,0.6-2.7,1.8-3.4,3.4l-24.8,59.8
			l-20.4,49.2c-0.4,0.9-0.6,1.9-0.6,2.9v10.1C-157.7,1548.2-155.9,1551.3-153.3,1553.1"/>
		<g id="g4">
			<path id="path4" class="st1" d="M-266.6,1484.5c2.4-2.4,2.4-6.4,0-8.9l-18.3-18.3c-2.4-2.4-6.4-2.4-8.9,0c-2.4,2.4-2.4,6.4,0,8.9
				l18.3,18.3c1.2,1.2,2.8,1.8,4.4,1.8C-269.4,1486.3-267.8,1485.7-266.6,1484.5z"/>
		</g>
		<path id="path5" class="st1" d="M-187.7,1553.1c-3.9,2.4-7.2,5.6-9.7,9.4c-3.5,5.2-5.5,11.4-5.5,18.1c0,1.7-0.7,3.3-1.8,4.4
			c-1.1,1.1-2.7,1.8-4.4,1.8c0,0,0,0,0,0c0,0,0,0,0,0h-64.7h-64.7c-1.7,0-3.3-0.7-4.4-1.8c-1.1-1.1-1.8-2.7-1.8-4.4
			c0-1.7,0.7-3.3,1.8-4.4c1.1-1.1,2.7-1.8,4.4-1.8h61.8l50.3,0c2.2-0.1,4.2-1.7,4.7-3.9c0.5-2.3-0.8-4.6-2.9-5.5l-46.3-19.2
			l-57.1-23.7c-1.6-0.7-2.8-1.9-3.4-3.4c-0.6-1.5-0.7-3.2,0-4.8c0.7-1.6,1.9-2.8,3.4-3.4c1.5-0.6,3.2-0.7,4.8,0l57.1,23.6l46.5,19.2
			c2.1,0.8,4.5,0,5.8-1.9c1.3-2,1-4.6-0.6-6.2l-17.5-17.4l-18.6-18.6c-1.2-1.2-1.8-2.8-1.8-4.4c0-1.6,0.6-3.2,1.8-4.4
			c1.2-1.2,2.8-1.8,4.4-1.8c1.6,0,3.2,0.6,4.4,1.8l18.6,18.6l17.6,17.6c1.6,1.5,4.1,1.8,6.1,0.5c2-1.3,2.7-3.8,1.8-5.9l-19.2-46.3
			l-23.6-57.1c-0.7-1.6-0.6-3.3,0-4.8c0.6-1.5,1.8-2.7,3.4-3.4c1.6-0.7,3.3-0.6,4.8,0c1.5,0.6,2.7,1.8,3.4,3.4l24.8,59.8l20.4,49.2
			c0.4,0.9,0.6,1.9,0.6,2.9v10.1C-183.3,1548.2-185,1551.3-187.7,1553.1"/>
	</g>
</g>
</svg>
