<?xml version="1.0" encoding="utf-8"?>
<!-- Generator: Adobe Illustrator 19.0.0, SVG Export Plug-In . SVG Version: 6.00 Build 0)  -->
<svg version="1.1" id="Layer_1" xmlns="http://www.w3.org/2000/svg" xmlns:xlink="http://www.w3.org/1999/xlink" x="0px" y="0px"
	 width="147.7px" height="148.4px" viewBox="-461.9 645.2 147.7 148.4" style="enable-background:new -461.9 645.2 147.7 148.4;"
	 xml:space="preserve">
<style type="text/css">
	.st0{fill:#08BF0D;}
	.st1{fill:#FFFFFF;}
</style>
<path class="st0" d="M-461.9,793.6l10.4-38.1c-6.4-11.2-9.8-23.9-9.8-36.8c0-40.6,33-73.5,73.6-73.5c19.7,0,38.2,7.7,52,21.6
	c13.9,13.9,21.5,32.4,21.5,52c0,40.6-33,73.6-73.6,73.6l0,0c-12.3,0-24.4-3.1-35.2-9L-461.9,793.6z"/>
<path class="st1" d="M-406.1,687.9c-1.4-3.1-2.8-3.1-4.1-3.2h-3.5c-1.2,0-3.2,0.5-4.9,2.3c-1.7,1.8-6.4,6.3-6.4,15.3
	s6.6,17.8,7.5,19c0.9,1.2,12.7,20.4,31.4,27.8c15.5,6.1,18.7,4.9,22.1,4.6c3.4-0.3,10.9-4.4,12.4-8.7s1.5-8,1.1-8.7
	c-0.5-0.8-1.7-1.2-3.5-2.1c-1.8-0.9-10.9-5.4-12.6-6c-1.7-0.6-2.9-0.9-4.1,0.9s-4.7,6-5.8,7.2c-1.1,1.2-2.1,1.4-4,0.5
	c-1.8-0.9-7.8-2.9-14.8-9.1c-5.5-4.9-9.2-10.9-10.2-12.7c-1.1-1.8-0.1-2.8,0.8-3.8c0.8-0.8,1.8-2.1,2.8-3.2c1-1.1,1.2-1.8,1.8-3.1
	s0.3-2.3-0.2-3.2C-400.9,700.7-404.5,691.6-406.1,687.9"/>
</svg>
