<?xml version="1.0" encoding="utf-8"?>
<!-- Generator: Adobe Illustrator 19.0.0, SVG Export Plug-In . SVG Version: 6.00 Build 0)  -->
<svg version="1.1" id="Layer_1" xmlns="http://www.w3.org/2000/svg" xmlns:xlink="http://www.w3.org/1999/xlink" x="0px" y="0px"
	 width="147.7px" height="148.4px" viewBox="-230.9 322.6 147.7 148.4" style="enable-background:new -230.9 322.6 147.7 148.4;"
	 xml:space="preserve">
<style type="text/css">
	.st0{fill:#08BF0D;}
	.st1{fill:none;}
	.st2{fill:#FFFFFF;}
</style>
<path class="st0" d="M-230.9,471l10.4-38.1c-6.4-11.2-9.8-23.9-9.8-36.8c0-40.6,33-73.5,73.6-73.5c19.7,0,38.2,7.7,52,21.6
	c13.9,13.9,21.5,32.4,21.5,52c0,40.6-33,73.6-73.6,73.6l0,0c-12.3,0-24.4-3.1-35.2-9L-230.9,471z"/>
<path class="st1" d="M-156.7,335c-33.7,0-61.2,27.4-61.2,61.1c0,11.5,3.2,22.8,9.3,32.5l1.5,2.3l-6.2,22.6l23.1-6.1l2.2,1.3
	c9.4,5.6,20.2,8.5,31.1,8.5l0,0c33.7,0,61.1-27.4,61.2-61.1c0.1-16.2-6.4-31.8-17.9-43.3C-124.9,341.4-140.5,334.9-156.7,335
	L-156.7,335z"/>
<path class="st2" d="M-175.1,365.3c-1.4-3.1-2.8-3.1-4.1-3.2h-3.5c-1.2,0-3.2,0.5-4.9,2.3s-6.4,6.3-6.4,15.3s6.6,17.8,7.5,19
	s12.7,20.4,31.4,27.8c15.5,6.1,18.7,4.9,22.1,4.6c3.4-0.3,10.9-4.4,12.4-8.7c1.5-4.3,1.5-8,1.1-8.7c-0.5-0.8-1.7-1.2-3.5-2.1
	s-10.9-5.4-12.6-6s-2.9-0.9-4.1,0.9c-1.2,1.8-4.7,6-5.8,7.2c-1.1,1.2-2.1,1.4-4,0.5c-1.8-0.9-7.8-2.9-14.8-9.1
	c-5.5-4.9-9.2-10.9-10.2-12.7c-1.1-1.8-0.1-2.8,0.8-3.8c0.8-0.8,1.8-2.1,2.8-3.2s1.2-1.8,1.8-3.1s0.3-2.3-0.2-3.2
	C-169.9,378.1-173.5,369-175.1,365.3"/>
</svg>
