<?xml version='1.0' encoding='utf-8'?>
<svg width="369.042954mm" height="312.009588mm" viewBox="3.18043 -315.190017 369.042954 312.009588" version="1.1" xmlns="http://www.w3.org/2000/svg">
  <g transform="scale(1,-1)" stroke-linecap="round">
    <g fill="none" stroke="rgb(255,0,0)" stroke-width="1.0" id="layer1">
      <path d="M 109.680487,114.089909 L 109.680487,77.089889 L 3.68043,77.089889 L 3.68043,311.090015 L 109.680487,311.090015 L 109.680487,114.089909 L 163.980517,114.089909 L 122.380494,58.885169 L 176.230523,58.885169 L 176.230523,66.385173 L 179.130525,66.385173 L 179.130525,58.885169 L 267.230572,58.885169 L 267.230572,51.385165 L 270.130574,51.385165 L 270.130574,58.885169 L 323.980603,58.885169 L 282.38058,114.089909 L 263.83057,114.089909 L 260.930569,114.089909 L 260.930569,106.589905 L 263.83057,106.589905 L 263.83057,114.089909" />
      <path d="M 163.980517,114.089909 L 182.530527,114.089909 L 185.430528,114.089909 L 185.430528,106.589905 L 182.530527,106.589905 L 182.530527,114.089909" />
      <line x1="185.430528" y1="114.089909" x2="260.930569" y2="114.089909" />
      <path d="M 282.38058,114.089909 L 306.680594,114.089909 L 371.723384,137.489921 L 371.723384,155.639931 L 364.22338,155.639931 L 364.22338,158.539933 L 371.723384,158.539933 L 371.723384,181.639945 L 364.22338,181.639945 L 364.22338,184.539947 L 371.723384,184.539947 L 371.723384,202.689956 L 306.680594,226.089969 L 306.680594,244.239979 L 306.680594,247.13998 L 314.180598,247.13998 L 314.180598,244.239979 L 306.680594,244.239979" />
      <path d="M 306.680594,114.089909 L 306.680594,129.439917 L 314.180598,129.439917 L 314.180598,132.339919 L 306.680594,132.339919 L 306.680594,207.839959 L 306.680594,210.739961 L 314.180598,210.739961 L 314.180598,207.839959 L 306.680594,207.839959" />
      <line x1="306.680594" y1="129.439917" x2="306.680594" y2="132.339919" />
      <line x1="306.680594" y1="210.739961" x2="306.680594" y2="226.089969" />
      <path d="M 306.680594,247.13998 L 306.680594,270.239993 L 306.680594,273.139995 L 314.180598,273.139995 L 314.180598,270.239993 L 306.680594,270.239993" />
      <path d="M 306.680594,273.139995 L 306.680594,291.290004 L 371.723384,314.690017 L 371.723384,299.340009 L 364.22338,299.340009 L 364.22338,296.440007 L 371.723384,296.440007 L 371.723384,220.939966 L 364.22338,220.939966 L 364.22338,218.039965 L 371.723384,218.039965 L 371.723384,202.689956" />
      <path d="M 306.680594,291.290004 L 306.680594,311.090015 L 109.680487,311.090015" />
      <path d="M 264.180571,212.589962 A 56.00003049999999,56.000030499998395 0.0 0,0 152.18051,212.589962 A 56.00003049999999,56.000030499998395 0.0 0,0 264.180571,212.589962" />
      <path d="M 145.580507,171.93994 L 155.580512,171.93994 L 155.580512,174.839941 L 145.580507,174.839941 L 145.580507,171.93994" />
      <path d="M 245.930561,265.18999 L 248.830562,265.18999 L 248.830562,275.189996 L 245.930561,275.189996 L 245.930561,265.18999" />
      <path d="M 260.780569,171.93994 L 270.780574,171.93994 L 270.780574,174.839941 L 260.780569,174.839941 L 260.780569,171.93994" />
      <path d="M 260.780569,250.339982 L 270.780574,250.339982 L 270.780574,253.239984 L 260.780569,253.239984 L 260.780569,250.339982" />
      <path d="M 145.580507,250.339982 L 155.580512,250.339982 L 155.580512,253.239984 L 145.580507,253.239984 L 145.580507,250.339982" />
      <path d="M 167.530518,149.989928 L 170.43052,149.989928 L 170.43052,159.989933 L 167.530518,159.989933 L 167.530518,149.989928" />
      <path d="M 167.530518,265.18999 L 170.43052,265.18999 L 170.43052,275.189996 L 167.530518,275.189996 L 167.530518,265.18999" />
      <path d="M 245.930561,149.989928 L 248.830562,149.989928 L 248.830562,159.989933 L 245.930561,159.989933 L 245.930561,149.989928" />
      <path d="M 300.93059,303.590011 A 1.7500009450000036,1.7500009449999538 0.0 0,0 297.430589,303.590011 A 1.7500009450000036,1.7500009449999538 0.0 0,0 300.93059,303.590011" />
      <path d="M 118.930492,303.590011 A 1.7500009999999973,1.7500009999999475 0.0 0,0 115.43049,303.590011 A 1.7500009999999973,1.7500009999999475 0.0 0,0 118.930492,303.590011" />
      <path d="M 300.93059,121.589913 A 1.7500009450000036,1.7500009449999538 0.0 0,0 297.430589,121.589913 A 1.7500009450000036,1.7500009449999538 0.0 0,0 300.93059,121.589913" />
      <path d="M 118.930492,121.589913 A 1.7500009999999973,1.7500009999999475 0.0 0,0 115.43049,121.589913 A 1.7500009999999973,1.7500009999999475 0.0 0,0 118.930492,121.589913" />
      <path d="M 30.680445,286.090002 L 30.680445,200.189955 L 30.680445,189.98995 L 30.680445,104.089903 L 82.680473,104.089903 L 82.680473,189.98995 L 79.480471,189.98995 L 79.480471,186.789948 L 70.923633,181.921684 L 68.876978,184.381606 L 74.64242,189.178453 L 72.787639,191.407757 L 67.022197,186.61091 L 64.975542,189.070831 L 64.975542,192.270833 L 61.775541,192.270833 L 61.775541,202.470839 L 64.975542,202.470839 L 64.975542,205.67084 L 73.53238,210.539104 L 75.579035,208.079183 L 69.813593,203.282335 L 71.668374,201.053031 L 77.433816,205.849879 L 79.480471,203.389957 L 79.480471,200.189955 L 82.680473,200.189955 L 82.680473,286.090002 L 30.680445,286.090002" />
      <line x1="82.680473" y1="189.98995" x2="82.680473" y2="200.189955" />
      <path d="M 42.230451,299.290009 L 42.230451,289.290003 L 45.130452,289.290003 L 45.130452,299.290009 L 42.230451,299.290009" />
      <path d="M 42.230451,100.889902 L 42.230451,90.889896 L 45.130452,90.889896 L 45.130452,100.889902 L 42.230451,100.889902" />
      <path d="M 68.230465,100.889902 L 68.230465,90.889896 L 71.130466,90.889896 L 71.130466,100.889902 L 68.230465,100.889902" />
      <path d="M 68.230465,299.290009 L 68.230465,289.290003 L 71.130466,289.290003 L 71.130466,299.290009 L 68.230465,299.290009" />
      <path d="M 17.480437,148.139927 L 17.480437,151.039929 L 27.480443,151.039929 L 27.480443,148.139927 L 17.480437,148.139927" />
      <path d="M 17.480437,239.139976 L 17.480437,242.039978 L 27.480443,242.039978 L 27.480443,239.139976 L 17.480437,239.139976" />
      <path d="M 85.880474,239.139976 L 85.880474,242.039978 L 95.88048,242.039978 L 95.88048,239.139976 L 85.880474,239.139976" />
      <path d="M 85.880474,151.039929 L 85.880474,148.139927 L 95.88048,148.139927 L 95.88048,151.039929 L 85.880474,151.039929" />
      <path d="M 25.930442,135.08992 A 1.7500009999999993,1.7500009999999495 0.0 0,0 22.43044,135.08992 A 1.7500009999999993,1.7500009999999495 0.0 0,0 25.930442,135.08992" />
      <path d="M 90.930477,135.08992 A 1.7500009999999973,1.7500009999999475 0.0 0,0 87.430475,135.08992 A 1.7500009999999973,1.7500009999999475 0.0 0,0 90.930477,135.08992" />
      <path d="M 58.43046,291.090004 A 1.7500009999999973,1.7500009999999475 0.0 0,0 54.930458,291.090004 A 1.7500009999999973,1.7500009999999475 0.0 0,0 58.43046,291.090004" />
      <path d="M 53.379337,155.613293 L 54.735743,152.714988 L 47.942841,149.535909 L 49.172085,146.909321 L 55.964987,150.088399 L 57.321394,147.190094 L 59.490844,144.837755 L 53.977551,139.753106 L 55.943615,137.621299 L 61.456908,142.705949 L 63.626359,140.35361 L 57.130019,130.461575 L 54.168003,131.672555 L 52.957023,128.710538 L 43.515597,132.570536 L 44.726576,135.532552 L 41.76456,136.743532 L 41.76456,139.943534 L 38.564559,139.943534 L 38.564559,150.143539 L 41.76456,150.143539 L 41.76456,153.343541 L 53.379337,155.613293 L 53.379337,158.813294 L 56.579338,158.813294 L 56.579338,169.0133 L 53.379337,169.0133 L 53.379337,172.213302 L 37.822503,161.76674 L 37.822503,164.966742 L 34.622502,164.966742 L 34.622502,175.166747 L 37.822503,175.166747 L 37.822503,178.366749 L 36.466097,181.265054 L 43.258999,184.444132 L 42.029755,187.070721 L 35.236853,183.891643 L 33.880446,186.789948 L 33.880446,189.98995 L 30.680445,189.98995" />
      <path d="M 30.680445,200.189955 L 33.880446,200.189955 L 33.880446,203.389957 L 45.495222,205.659708 L 46.851629,202.761403 L 40.058727,199.582325 L 41.28797,196.955736 L 48.080873,200.134815 L 49.437279,197.23651 L 49.437279,194.036508 L 52.637281,194.036508 L 52.637281,183.836502 L 49.437279,183.836502 L 49.437279,180.636501 L 37.822503,178.366749" />
      <line x1="33.880446" y1="186.789948" x2="49.437279" y2="197.23651" />
      <path d="M 53.379337,172.213302 L 52.02293,175.111607 L 45.230027,171.932528 L 44.000784,174.559117 L 50.793686,177.738196 L 49.437279,180.636501" />
      <path d="M 37.822503,161.76674 L 39.17891,158.868435 L 45.971812,162.047513 L 47.201056,159.420924 L 40.408154,156.241846 L 41.76456,153.343541" />
      <line x1="41.76456" y1="136.743532" x2="57.321394" y2="147.190094" />
      <path d="M 52.957023,128.710538 L 51.746043,125.748522 L 54.708059,124.537543 L 57.908054,124.530739 L 57.914858,127.730733 L 68.11484,127.709046 L 68.108036,124.509051 L 71.308031,124.502248 L 60.828415,108.967661 L 57.933001,110.330227 L 61.126515,117.116355 L 58.502546,118.35118 L 55.309032,111.565053 L 52.413617,112.927619 L 49.217554,112.768897 L 48.84555,120.25967 L 45.949118,120.115828 L 46.321122,112.625055 L 43.125059,112.466334 L 39.342601,130.8195 L 42.304617,129.60852 L 43.515597,132.570536" />
      <line x1="52.413617" y1="112.927619" x2="54.708059" y2="124.537543" />
      <line x1="64.975542" y1="189.070831" x2="79.480471" y2="203.389957" />
      <path d="M 64.975542,205.67084 L 62.928888,208.130762 L 68.694329,212.927609 L 66.839548,215.156914 L 61.074107,210.360066 L 59.027452,212.819988 L 59.027452,216.01999 L 55.82745,216.01999 L 55.82745,226.219995 L 59.027452,226.219995 L 59.027452,229.419997 L 67.584289,234.288261 L 69.630944,231.828339 L 63.865503,227.031492 L 65.720284,224.802188 L 71.485725,229.599035 L 73.53238,227.139113 L 73.53238,223.939112 L 76.732382,223.939112 L 76.732382,213.739106 L 73.53238,213.739106 L 73.53238,210.539104" />
      <line x1="59.027452" y1="212.819988" x2="73.53238" y2="227.139113" />
      <path d="M 61.636199,258.037417 L 53.079361,253.169153 L 51.032706,255.629075 L 56.798148,260.425922 L 54.943367,262.655226 L 49.177925,257.858379 L 47.13127,260.318301 L 47.13127,263.518303 L 43.931269,263.518303 L 43.931269,273.718308 L 47.13127,273.718308 L 47.13127,276.91831 L 55.688108,281.786574 L 57.734763,279.326652 L 51.969321,274.529805 L 53.824102,272.300501 L 59.589544,277.097348 L 61.636199,274.637426 L 61.636199,271.437425 L 64.8362,271.437425 L 64.8362,261.237419 L 61.636199,261.237419 L 61.636199,258.037417 L 63.682854,255.577496 L 57.917412,250.780648 L 59.772193,248.551344 L 65.537635,253.348192 L 67.584289,250.88827 L 67.584289,247.688268 L 70.784291,247.688268 L 70.784291,237.488263 L 67.584289,237.488263 L 67.584289,234.288261" />
      <line x1="61.636199" y1="274.637426" x2="47.13127" y2="260.318301" />
      <path d="M 67.584289,250.88827 L 53.079361,236.569144 L 53.079361,239.769146 L 49.879359,239.769146 L 49.879359,249.969152 L 53.079361,249.969152 L 53.079361,253.169153" />
      <path d="M 59.027452,229.419997 L 56.980797,231.879919 L 62.746238,236.676766 L 60.891457,238.90607 L 55.126016,234.109223 L 53.079361,236.569144" />
      <path d="M 323.980603,58.885169 L 282.38058,3.680429 L 263.83057,3.680429 L 263.83057,11.180433 L 260.930569,11.180433 L 260.930569,3.680429 L 185.430528,3.680429 L 185.430528,11.180433 L 182.530527,11.180433 L 182.530527,3.680429 L 163.980517,3.680429 L 122.380494,58.885169" />
      <path d="M 176.230523,58.885169 L 176.230523,51.385165 L 179.130525,51.385165 L 179.130525,58.885169" />
      <path d="M 270.130574,58.885169 L 270.130574,66.385173 L 267.230572,66.385173 L 267.230572,58.885169" />
    </g>
  </g>
</svg>